<svg xmlns="http://www.w3.org/2000/svg" xmlns:xlink="http://www.w3.org/1999/xlink" width="199.962" height="109.413" viewBox="0 0 199.962 109.413">
  <defs>
    <clipPath id="clip-path">
      <rect id="Rectangle_4070" data-name="Rectangle 4070" width="58.917" height="85.757" fill="none"/>
    </clipPath>
  </defs>
  <g id="automated-phone-call-icon-img" transform="translate(0 -10.192)">
    <g id="Group_6690" data-name="Group 6690" transform="translate(0 86.197)">
      <path id="Path_70433" data-name="Path 70433" d="M737.16,82.7a8.4,8.4,0,0,1-1.862-.26,4.479,4.479,0,0,0-3.4.235l-.623-1.283a5.849,5.849,0,0,1,4.33-.347,4.557,4.557,0,0,0,5.684-2.76,5.967,5.967,0,0,1,7.277-3.533,4.562,4.562,0,0,0,5.685-2.763,5.968,5.968,0,0,1,7.282-3.537,4.563,4.563,0,0,0,5.688-2.761,5.969,5.969,0,0,1,7.28-3.536,4.56,4.56,0,0,0,5.686-2.761,5.972,5.972,0,0,1,7.283-3.537,4.575,4.575,0,0,0,5.695-2.767,5.985,5.985,0,0,1,7.29-3.54,4.5,4.5,0,0,0,3.4-.238l.624,1.283a5.855,5.855,0,0,1-4.335.348,4.579,4.579,0,0,0-5.7,2.768,5.983,5.983,0,0,1-7.289,3.539,4.567,4.567,0,0,0-5.689,2.764,5.968,5.968,0,0,1-7.28,3.536,4.56,4.56,0,0,0-5.686,2.761,5.971,5.971,0,0,1-7.283,3.536,4.56,4.56,0,0,0-5.686,2.763,5.968,5.968,0,0,1-7.279,3.536,4.557,4.557,0,0,0-5.684,2.76,5.846,5.846,0,0,1-2.947,3.189A5.523,5.523,0,0,1,737.16,82.7Z" transform="translate(-731.275 -49.29)" fill="#2a5082"/>
    </g>
    <g id="Group_8505" data-name="Group 8505" transform="matrix(0.956, 0.292, -0.292, 0.956, 15.147, 79.336)">
      <rect id="Rectangle_3358" data-name="Rectangle 3358" width="37.524" height="1.427" transform="matrix(0.74, -0.672, 0.672, 0.74, 0, 25.231)" fill="#a3d4ff"/>
    </g>
    <g id="Group_6726" data-name="Group 6726" transform="translate(25.044 113.819)">
      <g id="Group_6723" data-name="Group 6723" transform="translate(1.06 0)">
        <rect id="Rectangle_3359" data-name="Rectangle 3359" width="1.427" height="5.717" transform="matrix(0.907, -0.421, 0.421, 0.907, 0, 0.601)" fill="#2a5082"/>
      </g>
      <g id="Group_6724" data-name="Group 6724" transform="translate(0 1.926)">
        <rect id="Rectangle_3360" data-name="Rectangle 3360" width="1.427" height="5.718" transform="matrix(0.089, -0.996, 0.996, 0.089, 0, 1.421)" fill="#2a5082"/>
      </g>
      <g id="Group_6725" data-name="Group 6725" transform="translate(0.683 0.145)">
        <rect id="Rectangle_3361" data-name="Rectangle 3361" width="5.716" height="1.427" transform="translate(0 4.675) rotate(-54.883)" fill="#2a5082"/>
      </g>
    </g>
    <g id="Group_9704" data-name="Group 9704" transform="translate(134.088 0)">
      <g id="Group_6722" data-name="Group 6722" transform="matrix(0.978, 0.208, -0.208, 0.978, 17.203, 0)">
        <rect id="Rectangle_3358-2" data-name="Rectangle 3358" width="66.23" height="1.427" transform="matrix(0.74, -0.672, 0.672, 0.74, 0, 44.533)" fill="#a3d4ff"/>
      </g>
      <g id="Group_8506" data-name="Group 8506" transform="translate(15.745 23.622) rotate(13)">
        <rect id="Rectangle_3358-3" data-name="Rectangle 3358" width="37.524" height="1.427" transform="matrix(0.74, -0.672, 0.672, 0.74, 0, 25.231)" fill="#a3d4ff"/>
      </g>
      <g id="Group_6733" data-name="Group 6733" transform="translate(0 22.89)">
        <g id="Group_6731" data-name="Group 6731" transform="translate(1.96 0)">
          <rect id="Rectangle_3365" data-name="Rectangle 3365" width="1.427" height="9.484" transform="translate(0 0.6) rotate(-24.882)" fill="#2a5082"/>
        </g>
        <g id="Group_6732" data-name="Group 6732" transform="translate(0 1.96)">
          <rect id="Rectangle_3366" data-name="Rectangle 3366" width="9.485" height="1.427" transform="translate(0 3.989) rotate(-24.868)" fill="#2a5082"/>
        </g>
      </g>
      <g id="Group_6734" data-name="Group 6734" transform="translate(14.874 61.163)">
        <path id="Path_70474" data-name="Path 70474" d="M751.359,47.73,749.163,43l4.736-2.2,2.2,4.735Zm-.3-4.041,1,2.146,2.146-.995-.995-2.146Z" transform="translate(-749.163 -40.799)" fill="#2a5082"/>
      </g>
    </g>
    <g id="Group_10959" data-name="Group 10959" transform="translate(75.171 17.144)">
      <g id="Group_10958" data-name="Group 10958" clip-path="url(#clip-path)">
        <path id="Path_71545" data-name="Path 71545" d="M39.278,70.5H4.38A4.38,4.38,0,0,1,0,66.118V4.38A4.38,4.38,0,0,1,4.38,0h34.9a4.38,4.38,0,0,1,4.38,4.38V66.118a4.38,4.38,0,0,1-4.38,4.38" fill="#a3d4ff"/>
        <rect id="Rectangle_4068" data-name="Rectangle 4068" width="35.216" height="51.974" transform="translate(4.221 9.077)" fill="#fff"/>
        <path id="Path_71546" data-name="Path 71546" d="M61.308,117.364H26.092a1.042,1.042,0,0,1-1.042-1.042V64.348a1.042,1.042,0,0,1,1.042-1.042H61.308a1.042,1.042,0,0,1,1.042,1.042v51.974a1.042,1.042,0,0,1-1.042,1.042M27.134,115.28H60.266V65.39H27.134Z" transform="translate(-21.871 -55.271)" fill="#2a5082"/>
        <path id="Path_71547" data-name="Path 71547" d="M129.828,30.44H117.311a.78.78,0,1,1,0-1.561h12.517a.78.78,0,0,1,0,1.561" transform="translate(-101.741 -25.214)" fill="#2a5082"/>
        <path id="Path_71548" data-name="Path 71548" d="M159.5,190.717H124.6a4.38,4.38,0,0,1-4.38-4.38V124.6a4.38,4.38,0,0,1,4.38-4.38h34.9a4.38,4.38,0,0,1,4.38,4.38v61.738a4.38,4.38,0,0,1-4.38,4.38" transform="translate(-104.96 -104.96)" fill="#a3d4ff"/>
        <rect id="Rectangle_4069" data-name="Rectangle 4069" width="35.216" height="51.974" transform="translate(19.48 24.335)" fill="#fff"/>
        <path id="Path_71549" data-name="Path 71549" d="M181.527,237.582H146.311a1.042,1.042,0,0,1-1.042-1.042V184.566a1.042,1.042,0,0,1,1.042-1.042h35.216a1.042,1.042,0,0,1,1.042,1.042V236.54a1.042,1.042,0,0,1-1.042,1.042M147.353,235.5h33.132V185.608H147.353Z" transform="translate(-126.831 -160.231)" fill="#2a5082"/>
        <path id="Path_71550" data-name="Path 71550" d="M250.046,150.659H237.529a.78.78,0,1,1,0-1.561h12.517a.78.78,0,0,1,0,1.561" transform="translate(-206.7 -130.174)" fill="#2a5082"/>
      </g>
    </g>
  </g>
</svg>
