<svg xmlns="http://www.w3.org/2000/svg" xmlns:xlink="http://www.w3.org/1999/xlink" width="199.527" height="109.175" viewBox="0 0 199.527 109.175">
  <defs>
    <clipPath id="clip-path">
      <rect id="Rectangle_4545" data-name="Rectangle 4545" width="95.421" height="75.965" fill="#a3d4ff"/>
    </clipPath>
  </defs>
  <g id="change-registered-owner-icon-img" transform="translate(0 -10.17)">
    <g id="Group_6690" data-name="Group 6690" transform="translate(0 86.01)">
      <path id="Path_70433" data-name="Path 70433" d="M737.147,82.626a8.378,8.378,0,0,1-1.858-.259,4.469,4.469,0,0,0-3.392.235l-.622-1.28a5.836,5.836,0,0,1,4.321-.346,4.547,4.547,0,0,0,5.671-2.754,5.954,5.954,0,0,1,7.261-3.525A4.552,4.552,0,0,0,754.2,71.94a5.955,5.955,0,0,1,7.266-3.53,4.553,4.553,0,0,0,5.675-2.755,5.956,5.956,0,0,1,7.264-3.528,4.551,4.551,0,0,0,5.674-2.755,5.959,5.959,0,0,1,7.267-3.53,4.565,4.565,0,0,0,5.683-2.761,5.972,5.972,0,0,1,7.274-3.533,4.485,4.485,0,0,0,3.4-.238l.622,1.28a5.843,5.843,0,0,1-4.326.347,4.568,4.568,0,0,0-5.685,2.762,5.971,5.971,0,0,1-7.273,3.531,4.557,4.557,0,0,0-5.677,2.758,5.955,5.955,0,0,1-7.264,3.528,4.551,4.551,0,0,0-5.674,2.755,5.959,5.959,0,0,1-7.267,3.528,4.55,4.55,0,0,0-5.674,2.757,5.955,5.955,0,0,1-7.263,3.528,4.547,4.547,0,0,0-5.671,2.754,5.833,5.833,0,0,1-2.94,3.182A5.511,5.511,0,0,1,737.147,82.626Z" transform="translate(-731.275 -49.29)" fill="#2a5082"/>
    </g>
    <g id="Group_8505" data-name="Group 8505" transform="matrix(0.956, 0.292, -0.292, 0.956, 15.114, 79.164)">
      <rect id="Rectangle_3358" data-name="Rectangle 3358" width="37.442" height="1.424" transform="matrix(0.74, -0.672, 0.672, 0.74, 0, 25.176)" fill="#a3d4ff"/>
    </g>
    <g id="Group_6726" data-name="Group 6726" transform="translate(24.989 113.571)">
      <g id="Group_6723" data-name="Group 6723" transform="translate(1.058 0)">
        <rect id="Rectangle_3359" data-name="Rectangle 3359" width="1.424" height="5.705" transform="matrix(0.907, -0.421, 0.421, 0.907, 0, 0.599)" fill="#2a5082"/>
      </g>
      <g id="Group_6724" data-name="Group 6724" transform="translate(0 1.922)">
        <rect id="Rectangle_3360" data-name="Rectangle 3360" width="1.424" height="5.705" transform="matrix(0.089, -0.996, 0.996, 0.089, 0, 1.418)" fill="#2a5082"/>
      </g>
      <g id="Group_6725" data-name="Group 6725" transform="translate(0.681 0.145)">
        <rect id="Rectangle_3361" data-name="Rectangle 3361" width="5.703" height="1.424" transform="translate(0 4.665) rotate(-54.883)" fill="#2a5082"/>
      </g>
    </g>
    <g id="Group_9704" data-name="Group 9704" transform="translate(133.796 0)">
      <g id="Group_6722" data-name="Group 6722" transform="matrix(0.978, 0.208, -0.208, 0.978, 17.165, 0)">
        <rect id="Rectangle_3358-2" data-name="Rectangle 3358" width="66.086" height="1.424" transform="matrix(0.74, -0.672, 0.672, 0.74, 0, 44.436)" fill="#a3d4ff"/>
      </g>
      <g id="Group_8506" data-name="Group 8506" transform="translate(15.711 23.57) rotate(13)">
        <rect id="Rectangle_3358-3" data-name="Rectangle 3358" width="37.442" height="1.424" transform="matrix(0.74, -0.672, 0.672, 0.74, 0, 25.176)" fill="#a3d4ff"/>
      </g>
      <g id="Group_6733" data-name="Group 6733" transform="translate(0 22.841)">
        <g id="Group_6731" data-name="Group 6731" transform="translate(1.956 0)">
          <rect id="Rectangle_3365" data-name="Rectangle 3365" width="1.424" height="9.463" transform="translate(0 0.599) rotate(-24.882)" fill="#2a5082"/>
        </g>
        <g id="Group_6732" data-name="Group 6732" transform="translate(0 1.955)">
          <rect id="Rectangle_3366" data-name="Rectangle 3366" width="9.464" height="1.424" transform="translate(0 3.98) rotate(-24.868)" fill="#2a5082"/>
        </g>
      </g>
      <g id="Group_6734" data-name="Group 6734" transform="translate(14.841 61.03)">
        <path id="Path_70474" data-name="Path 70474" d="M751.354,47.715l-2.191-4.724,4.725-2.191,2.191,4.724Zm-.3-4.032.994,2.141,2.141-.992L753.2,42.69Z" transform="translate(-749.163 -40.799)" fill="#2a5082"/>
      </g>
    </g>
    <g id="Group_12111" data-name="Group 12111" transform="translate(49 22.932)">
      <g id="Group_12110" data-name="Group 12110" clip-path="url(#clip-path)">
        <path id="Path_73327" data-name="Path 73327" d="M66.653,13.507A6.754,6.754,0,1,0,59.9,6.754a6.753,6.753,0,0,0,6.754,6.754" transform="translate(-20.149)" fill="#2a5082"/>
        <path id="Path_73328" data-name="Path 73328" d="M9.366,49.968a4.717,4.717,0,1,0-4.717-4.717,4.717,4.717,0,0,0,4.717,4.717" transform="translate(-1.564 -13.635)" fill="#a3d4ff"/>
        <path id="Path_73329" data-name="Path 73329" d="M105.365,28.781a4.542,4.542,0,1,0-4.542-4.542,4.542,4.542,0,0,0,4.542,4.542" transform="translate(-33.916 -6.626)" fill="#a3d4ff"/>
        <path id="Path_73330" data-name="Path 73330" d="M33.906,28.781a4.542,4.542,0,1,0-4.542-4.542,4.542,4.542,0,0,0,4.542,4.542" transform="translate(-9.878 -6.626)" fill="#a3d4ff"/>
        <path id="Path_73331" data-name="Path 73331" d="M129.643,49.968a4.717,4.717,0,1,0-4.718-4.717,4.717,4.717,0,0,0,4.718,4.717" transform="translate(-42.023 -13.635)" fill="#a3d4ff"/>
        <path id="Path_73332" data-name="Path 73332" d="M112.029,46.323l-.441-8.5a4.364,4.364,0,0,0-4.359-4.138l-4.211,4.532-1.98-4.532a1.952,1.952,0,0,0-1.929,1.65l-.789,5.044a48.355,48.355,0,0,1,9.36,3.389,32.47,32.47,0,0,1,4.349,2.559" transform="translate(-33.074 -11.33)" fill="#a3d4ff"/>
        <path id="Path_73333" data-name="Path 73333" d="M136.607,59.356a4.533,4.533,0,0,0-4.527-4.3l-4.373,4.708-2.057-4.708a2.02,2.02,0,0,0-1.833,1.18,12.294,12.294,0,0,1,3.858,8.545A10.614,10.614,0,0,1,126.786,69a11.047,11.047,0,0,0,5.157.264l5.129-.961Z" transform="translate(-41.651 -18.521)" fill="#a3d4ff"/>
        <path id="Path_73334" data-name="Path 73334" d="M13.36,56.513a2.023,2.023,0,0,0-1.938-1.455L9.365,59.766,4.991,55.058a4.534,4.534,0,0,0-4.527,4.3L0,68.3l5.128.961a11.032,11.032,0,0,0,5.48-.367,10.587,10.587,0,0,1-.846-4.11,12.14,12.14,0,0,1,3.6-8.271" transform="translate(0 -18.521)" fill="#a3d4ff"/>
        <path id="Path_73335" data-name="Path 73335" d="M65.716,34.249h0c2.356,0,4.678.111,6.948.319A2.96,2.96,0,0,0,70.222,33.2h-6.27V31.894H71.01a6.5,6.5,0,0,0,6.267-4.777l.284-1.034A2.192,2.192,0,0,0,73.689,24.2l-1.514,2.038a.317.317,0,0,1-.572-.189V24.631A2.953,2.953,0,0,0,68.91,21.7l-2.4,6.712-6.057-6.74h-3.54A3.928,3.928,0,0,0,52.982,25.6v6.758a6.14,6.14,0,0,0,.705,2.865,73.782,73.782,0,0,1,12.029-.97" transform="translate(-17.823 -7.289)" fill="#2a5082"/>
        <path id="Path_73336" data-name="Path 73336" d="M29.553,43.765a48.086,48.086,0,0,1,9.062-3.314l-.8-5.119a1.953,1.953,0,0,0-1.929-1.65L33.9,38.213l-4.21-4.532a4.363,4.363,0,0,0-4.359,4.138l-.447,8.612.132.025a32.159,32.159,0,0,1,4.532-2.692" transform="translate(-8.372 -11.33)" fill="#a3d4ff"/>
        <path id="Path_73337" data-name="Path 73337" d="M37.929,70.528a5.542,5.542,0,1,0-5.542,5.542,5.542,5.542,0,0,0,5.542-5.542" transform="translate(-9.03 -21.861)" fill="#a3d4ff"/>
        <path id="Path_73338" data-name="Path 73338" d="M34.264,82.05H26.709a2.383,2.383,0,0,0-2.354,2.014L22.608,95.233a12.982,12.982,0,0,0,11.494,3.5l6.026-1.128L39.583,87.1a5.326,5.326,0,0,0-5.319-5.05" transform="translate(-7.605 -27.601)" fill="#a3d4ff"/>
        <path id="Path_73339" data-name="Path 73339" d="M110.9,70.528a5.542,5.542,0,1,0-5.542,5.542,5.542,5.542,0,0,0,5.542-5.542" transform="translate(-33.575 -21.861)" fill="#a3d4ff"/>
        <path id="Path_73340" data-name="Path 73340" d="M107.768,82.05h-7.555a5.326,5.326,0,0,0-5.319,5.05l-.545,10.509,6.026,1.128a12.982,12.982,0,0,0,11.494-3.5l-1.747-11.169a2.383,2.383,0,0,0-2.354-2.014" transform="translate(-31.738 -27.601)" fill="#a3d4ff"/>
        <path id="Path_73341" data-name="Path 73341" d="M68.38,82.441A5.542,5.542,0,1,0,62.838,76.9a5.542,5.542,0,0,0,5.542,5.542" transform="translate(-21.138 -24.004)" fill="#a3d4ff"/>
        <path id="Path_73342" data-name="Path 73342" d="M69.386,88.991H64.38a5.326,5.326,0,0,0-5.319,5.05l-.545,10.508,6.026,1.129a12.984,12.984,0,0,0,11.494-3.5l-1.353-8.65a5.361,5.361,0,0,0-5.3-4.532" transform="translate(-19.684 -29.936)" fill="#a3d4ff"/>
        <path id="Path_73343" data-name="Path 73343" d="M78.738,87.27a6.456,6.456,0,0,1,3.892,4.982l.116.741q2.888-.326,5.59-.871l.2-3.842a6.433,6.433,0,0,1,.676-2.55A62.335,62.335,0,0,1,78.738,87.27" transform="translate(-26.487 -28.838)" fill="#a3d4ff"/>
        <path id="Path_73344" data-name="Path 73344" d="M53.321,42.049c-20.537,0-37.186,8.219-37.186,18.358,0,3.4,1.875,6.584,5.138,9.315A3.487,3.487,0,0,1,24.061,67.5a6.619,6.619,0,0,1-1.75-6.193,3.356,3.356,0,0,1-.129-.9c0-2.372,2.882-5.269,7.521-7.559,6.118-3.02,14.726-4.753,23.618-4.753s17.5,1.733,23.618,4.753c4.639,2.29,7.521,5.187,7.521,7.559a4.049,4.049,0,0,1-.577,1.952c.011.15.023.3.023.453A6.652,6.652,0,0,1,81.978,67.5a3.49,3.49,0,0,1,2.913,2.613c3.558-2.816,5.617-6.141,5.617-9.7,0-10.139-16.649-18.358-37.186-18.358" transform="translate(-5.428 -14.145)" fill="#a3d4ff"/>
        <path id="Path_73345" data-name="Path 73345" d="M58.824,87.1a61.108,61.108,0,0,1-10.046-1.63,6.436,6.436,0,0,1,.765,2.72l.193,3.718c1.595.336,3.247.617,4.947.841A6.454,6.454,0,0,1,58.824,87.1" transform="translate(-16.408 -28.752)" fill="#a3d4ff"/>
      </g>
    </g>
  </g>
</svg>
