<svg xmlns="http://www.w3.org/2000/svg" xmlns:xlink="http://www.w3.org/1999/xlink" width="199.527" height="109.175" viewBox="0 0 199.527 109.175">
  <defs>
    <clipPath id="clip-path">
      <rect id="Rectangle_4552" data-name="Rectangle 4552" width="81.263" height="67.637" fill="none"/>
    </clipPath>
  </defs>
  <g id="change-registered-owner-icon-img" transform="translate(0 -10.17)">
    <g id="Group_6690" data-name="Group 6690" transform="translate(0 86.01)">
      <path id="Path_70433" data-name="Path 70433" d="M737.147,82.626a8.378,8.378,0,0,1-1.858-.259,4.469,4.469,0,0,0-3.392.235l-.622-1.28a5.836,5.836,0,0,1,4.321-.346,4.547,4.547,0,0,0,5.671-2.754,5.954,5.954,0,0,1,7.261-3.525A4.552,4.552,0,0,0,754.2,71.94a5.955,5.955,0,0,1,7.266-3.53,4.553,4.553,0,0,0,5.675-2.755,5.956,5.956,0,0,1,7.264-3.528,4.551,4.551,0,0,0,5.674-2.755,5.959,5.959,0,0,1,7.267-3.53,4.565,4.565,0,0,0,5.683-2.761,5.972,5.972,0,0,1,7.274-3.533,4.485,4.485,0,0,0,3.4-.238l.622,1.28a5.843,5.843,0,0,1-4.326.347,4.568,4.568,0,0,0-5.685,2.762,5.971,5.971,0,0,1-7.273,3.531,4.557,4.557,0,0,0-5.677,2.758,5.955,5.955,0,0,1-7.264,3.528,4.551,4.551,0,0,0-5.674,2.755,5.959,5.959,0,0,1-7.267,3.528,4.55,4.55,0,0,0-5.674,2.757,5.955,5.955,0,0,1-7.263,3.528,4.547,4.547,0,0,0-5.671,2.754,5.833,5.833,0,0,1-2.94,3.182A5.511,5.511,0,0,1,737.147,82.626Z" transform="translate(-731.275 -49.29)" fill="#2a5082"/>
    </g>
    <g id="Group_8505" data-name="Group 8505" transform="matrix(0.956, 0.292, -0.292, 0.956, 15.114, 79.164)">
      <rect id="Rectangle_3358" data-name="Rectangle 3358" width="37.442" height="1.424" transform="matrix(0.74, -0.672, 0.672, 0.74, 0, 25.176)" fill="#a3d4ff"/>
    </g>
    <g id="Group_6726" data-name="Group 6726" transform="translate(24.989 113.571)">
      <g id="Group_6723" data-name="Group 6723" transform="translate(1.058 0)">
        <rect id="Rectangle_3359" data-name="Rectangle 3359" width="1.424" height="5.705" transform="matrix(0.907, -0.421, 0.421, 0.907, 0, 0.599)" fill="#2a5082"/>
      </g>
      <g id="Group_6724" data-name="Group 6724" transform="translate(0 1.922)">
        <rect id="Rectangle_3360" data-name="Rectangle 3360" width="1.424" height="5.705" transform="matrix(0.089, -0.996, 0.996, 0.089, 0, 1.418)" fill="#2a5082"/>
      </g>
      <g id="Group_6725" data-name="Group 6725" transform="translate(0.681 0.145)">
        <rect id="Rectangle_3361" data-name="Rectangle 3361" width="5.703" height="1.424" transform="translate(0 4.665) rotate(-54.883)" fill="#2a5082"/>
      </g>
    </g>
    <g id="Group_9704" data-name="Group 9704" transform="translate(133.796 0)">
      <g id="Group_6722" data-name="Group 6722" transform="matrix(0.978, 0.208, -0.208, 0.978, 17.165, 0)">
        <rect id="Rectangle_3358-2" data-name="Rectangle 3358" width="66.086" height="1.424" transform="matrix(0.74, -0.672, 0.672, 0.74, 0, 44.436)" fill="#a3d4ff"/>
      </g>
      <g id="Group_8506" data-name="Group 8506" transform="translate(15.711 23.57) rotate(13)">
        <rect id="Rectangle_3358-3" data-name="Rectangle 3358" width="37.442" height="1.424" transform="matrix(0.74, -0.672, 0.672, 0.74, 0, 25.176)" fill="#a3d4ff"/>
      </g>
      <g id="Group_6733" data-name="Group 6733" transform="translate(0 22.841)">
        <g id="Group_6731" data-name="Group 6731" transform="translate(1.956 0)">
          <rect id="Rectangle_3365" data-name="Rectangle 3365" width="1.424" height="9.463" transform="translate(0 0.599) rotate(-24.882)" fill="#2a5082"/>
        </g>
        <g id="Group_6732" data-name="Group 6732" transform="translate(0 1.955)">
          <rect id="Rectangle_3366" data-name="Rectangle 3366" width="9.464" height="1.424" transform="translate(0 3.98) rotate(-24.868)" fill="#2a5082"/>
        </g>
      </g>
      <g id="Group_6734" data-name="Group 6734" transform="translate(14.841 61.03)">
        <path id="Path_70474" data-name="Path 70474" d="M751.354,47.715l-2.191-4.724,4.725-2.191,2.191,4.724Zm-.3-4.032.994,2.141,2.141-.992L753.2,42.69Z" transform="translate(-749.163 -40.799)" fill="#2a5082"/>
      </g>
    </g>
    <g id="Group_12126" data-name="Group 12126" transform="translate(55.586 31.28)">
      <rect id="Rectangle_4551" data-name="Rectangle 4551" width="21.474" height="4.393" transform="translate(29.894 60.254)" fill="#2a5082"/>
      <g id="Group_12125" data-name="Group 12125" transform="translate(0 0)">
        <g id="Group_12124" data-name="Group 12124" clip-path="url(#clip-path)">
          <path id="Path_73367" data-name="Path 73367" d="M79.24,0H2.027A2.02,2.02,0,0,0,0,2.023V56.99A2.016,2.016,0,0,0,2.027,59H79.24a2.02,2.02,0,0,0,2.023-2.015V2.023A2.024,2.024,0,0,0,79.24,0M76.224,46.12H5.027V4.864h71.2Z" transform="translate(0 0.001)" fill="#a3d4ff"/>
          <path id="Path_73368" data-name="Path 73368" d="M46.783,38.24H15.033a1.463,1.463,0,0,0-1.457,1.466v.546H48.24v-.546a1.463,1.463,0,0,0-1.457-1.466" transform="translate(9.722 27.386)" fill="#2a5082"/>
          <g id="Path_73369" data-name="Path 73369" transform="translate(4.911 4.252)" fill="#fff">
            <path d="M 71 42 L 1 42 L 1 1 L 71 1 L 71 42 Z" stroke="none"/>
            <path d="M 2 2 L 2 41 L 70 41 L 70 2 L 2 2 M 0 0 L 72 0 L 72 43 L 0 43 L 0 0 Z" stroke="none" fill="#2a5082"/>
          </g>
          <g id="api_black_24dp_2_" data-name="api_black_24dp (2)" transform="translate(23.979 9.54)">
            <rect id="Rectangle_4556" data-name="Rectangle 4556" width="33" height="33" transform="translate(-0.068 -0.288)" fill="none"/>
            <path id="Path_73379" data-name="Path 73379" d="M18.824,16.082l-2.742,2.742L13.34,16.082l2.742-2.742ZM16.082,7.855l2.907,2.907,3.428-3.428L16.082,1,9.748,7.334l3.428,3.428ZM7.855,16.082l2.907-2.907L7.334,9.748,1,16.082l6.334,6.334,3.428-3.428Zm16.453,0L21.4,18.989l3.428,3.428,6.334-6.334L24.83,9.748,21.4,13.175Zm-8.227,8.227L13.175,21.4,9.748,24.83l6.334,6.334,6.334-6.334L18.989,21.4Z" transform="translate(0.397 0.371)" fill="#2a5082"/>
          </g>
        </g>
      </g>
    </g>
  </g>
</svg>
